<svg xmlns="http://www.w3.org/2000/svg" xmlns:xlink="http://www.w3.org/1999/xlink" width="600" zoomAndPan="magnify" viewBox="0 0 450 149.999998" height="200" preserveAspectRatio="xMidYMid meet" version="1.0"><defs><clipPath id="3c4cd4965b"><path d="M 81.066406 51.535156 L 130.378906 51.535156 L 130.378906 98.464844 L 81.066406 98.464844 Z M 81.066406 51.535156 " clip-rule="nonzero"/></clipPath><clipPath id="acd495fe07"><path d="M 105.683594 51.535156 L 111.496094 69.460938 L 130.304688 69.460938 L 115.089844 80.539062 L 120.898438 98.464844 L 105.683594 87.386719 L 90.46875 98.464844 L 96.28125 80.539062 L 81.066406 69.460938 L 99.875 69.460938 Z M 105.683594 51.535156 " clip-rule="nonzero"/></clipPath><clipPath id="49acce5531"><path d="M 140.726562 51.535156 L 190 51.535156 L 190 98.464844 L 140.726562 98.464844 Z M 140.726562 51.535156 " clip-rule="nonzero"/></clipPath><clipPath id="ef39a252a2"><path d="M 165.34375 51.535156 L 171.152344 69.460938 L 189.960938 69.460938 L 174.746094 80.539062 L 180.558594 98.464844 L 165.34375 87.386719 L 150.128906 98.464844 L 155.9375 80.539062 L 140.726562 69.460938 L 159.53125 69.460938 Z M 165.34375 51.535156 " clip-rule="nonzero"/></clipPath><clipPath id="07c772aa18"><path d="M 200.382812 51.535156 L 249.691406 51.535156 L 249.691406 98.464844 L 200.382812 98.464844 Z M 200.382812 51.535156 " clip-rule="nonzero"/></clipPath><clipPath id="538a3d50b4"><path d="M 225 51.535156 L 230.8125 69.460938 L 249.617188 69.460938 L 234.402344 80.539062 L 240.214844 98.464844 L 225 87.386719 L 209.785156 98.464844 L 215.597656 80.539062 L 200.382812 69.460938 L 219.1875 69.460938 Z M 225 51.535156 " clip-rule="nonzero"/></clipPath><clipPath id="14516788c0"><path d="M 260.039062 51.535156 L 309.351562 51.535156 L 309.351562 98.464844 L 260.039062 98.464844 Z M 260.039062 51.535156 " clip-rule="nonzero"/></clipPath><clipPath id="9e54ce2806"><path d="M 284.65625 51.535156 L 290.46875 69.460938 L 309.273438 69.460938 L 294.058594 80.539062 L 299.871094 98.464844 L 284.65625 87.386719 L 269.441406 98.464844 L 275.253906 80.539062 L 260.039062 69.460938 L 278.847656 69.460938 Z M 284.65625 51.535156 " clip-rule="nonzero"/></clipPath><clipPath id="670a341bc8"><path d="M 319.695312 51.535156 L 369 51.535156 L 369 98.464844 L 319.695312 98.464844 Z M 319.695312 51.535156 " clip-rule="nonzero"/></clipPath><clipPath id="e16af11d00"><path d="M 344.316406 51.535156 L 350.125 69.460938 L 368.933594 69.460938 L 353.71875 80.539062 L 359.53125 98.464844 L 344.316406 87.386719 L 329.101562 98.464844 L 334.910156 80.539062 L 319.695312 69.460938 L 338.503906 69.460938 Z M 344.316406 51.535156 " clip-rule="nonzero"/></clipPath></defs><g clip-path="url(#3c4cd4965b)"><g clip-path="url(#acd495fe07)"><path fill="#f6cb0e" d="M 81.066406 51.535156 L 130.378906 51.535156 L 130.378906 98.464844 L 81.066406 98.464844 Z M 81.066406 51.535156 " fill-opacity="1" fill-rule="nonzero"/></g></g><g clip-path="url(#49acce5531)"><g clip-path="url(#ef39a252a2)"><path fill="#f6cb0e" d="M 140.726562 51.535156 L 190.035156 51.535156 L 190.035156 98.464844 L 140.726562 98.464844 Z M 140.726562 51.535156 " fill-opacity="1" fill-rule="nonzero"/></g></g><g clip-path="url(#07c772aa18)"><g clip-path="url(#538a3d50b4)"><path fill="#f6cb0e" d="M 200.382812 51.535156 L 249.691406 51.535156 L 249.691406 98.464844 L 200.382812 98.464844 Z M 200.382812 51.535156 " fill-opacity="1" fill-rule="nonzero"/></g></g><g clip-path="url(#14516788c0)"><g clip-path="url(#9e54ce2806)"><path fill="#f6cb0e" d="M 260.039062 51.535156 L 309.351562 51.535156 L 309.351562 98.464844 L 260.039062 98.464844 Z M 260.039062 51.535156 " fill-opacity="1" fill-rule="nonzero"/></g></g><g clip-path="url(#670a341bc8)"><g clip-path="url(#e16af11d00)"><path fill="#f6cb0e" d="M 319.695312 51.535156 L 369.007812 51.535156 L 369.007812 98.464844 L 319.695312 98.464844 Z M 319.695312 51.535156 " fill-opacity="1" fill-rule="nonzero"/></g></g></svg>